<?xml version="1.0" encoding="UTF-8"?>
<svg id="Layer_1" data-name="Layer 1" xmlns="http://www.w3.org/2000/svg" viewBox="0 0 1024 1024">
  <defs>
    <style>
      .cls-1 {
        fill: none;
      }

      .cls-2 {
        fill: #fff;
      }

      .cls-3 {
        fill: #ff385c;
      }
    </style>
  </defs>
  <rect class="cls-3" width="1024" height="1024" rx="102.41" ry="102.41"/>
  <path class="cls-1" d="M435.46,291.64c-.39,12.77-1.06,25.86-2.05,39.24,66.49,0,144.42,0,212.89,0,5.42-12.95,11.02-25.57,16.75-37.86-70.67.23-152.61-2.45-227.59-1.38Z"/>
  <path class="cls-1" d="M414.68,292.03c-16.12-.02-31.59,0-47.39,0-12.3.06-21.06-.61-26.49,4.43-7.52,7.53-7.54,22.24-.45,30,4.8,4.77,12.34,4.42,22.69,4.43,20.98,0,44.84,0,70.38,0,.99-13.38,1.66-26.47,2.05-39.24-6.99.1-13.93.23-20.79.4Z"/>
  <path class="cls-1" d="M403.89,501.33c-3.58,12.88-7.51,25.87-11.83,38.95,1.92.06,3.75.19,5.44.44,52.95.01,123.2,0,186.93-.01,2.26-12.95,4.77-25.72,7.51-38.29-63.63-.64-129.42-1.61-188.05-1.09Z"/>
  <path class="cls-1" d="M335.33,523.36c2.29,25.42,35.58,16.29,56.73,16.92,4.32-13.08,8.25-26.07,11.83-38.95-12.14.11-24.01.28-35.45.53-18.83-1.25-35.24.65-33.11,21.5Z"/>
  <g>
    <path class="cls-2" d="M381.21,518.68c9.71-1.24,19.79-2.44,30.1-3.62,49.82-5.69,105.86-10.75,160.02-15.89,77.67-7.37,151.42-14.91,197.13-24.78,44.07-15.9,63.73-72.63,33.77-110.24-17.54-22.92-49.44-32.51-76.09-28.74-26.52,2.78-72.02,7.56-123.91,13.01-58.23,6.12-124.51,13.08-181.05,19.02-21.72,2.28-42.01,4.42-59.85,6.3-8.8.92-15.18,1.9-19.69-1.74-6.72-5.97-8.03-18.48-2.3-25.56,4.17-4.77,11.67-4.98,22.13-6.13,13.44-1.4,26.59-2.81,40.31-4.23,5.81-.76,11.71-1.48,17.64-2.19,63.67-7.61,133.6-12.65,193.68-19.17,37.88-4.11,71.86-8.8,97.84-15.09,62.57-24.45,62.63-112.41-1.93-134.05-9.04-3.58-17.82-4.91-26.69-5.07-11.58-.22-23.33,1.55-36.09,2.88-38.08,3.95-70.74,7.5-117.38,12.33-44.31,4.71-90.93,9.59-133.66,14.05-62.12,6.48-116.03,12.08-142.71,15.02-20.13,1.65-41.02,11.84-55.11,27.12-16.95,19.63-22.93,43.76-19.71,67.64,9.05,83.8,37.59,360.74,49.14,467.58,2.77,20.43,2.78,40.85,7.73,60.38,3.7,12.66,10.48,24.06,19.38,33.32,14.62,15.2,35,24.62,57.08,24.27h.43c19.67-1.55,60.29,1.1,70.89-13.69,4.19-37.28-8.67-92.58-10.6-132.31-.64-11.08-3.25-24.21,1.49-33.84,7.6-9.22,23.02-6.65,36.26-9.13,49.63-6.35,107.57-11.37,162.59-16.61,58.93-5.61,114.51-11.46,152.86-19.44,47.96-15.53,68.35-78.31,31.92-116.28-17.74-18.86-45.98-26.82-70.85-23.71-25.11,2.6-69.15,7.22-117.63,12.32-54.2,5.7-113.94,12-158.98,16.72-1.46-.06-3.02,0-4.66.11-18.04,1.36-45.54,12.1-49.76-9.32-3.68-17.54,10.11-20.62,26.23-21.24Z"/>
    <path class="cls-2" d="M599.88,709.51l-23.25,2.44-92.32,9.7,2.8,26.61c6.72,63.89,62.92,110.81,126.47,106.68,1.6-.1,3.19-.21,4.8-.38l86.09-9.05-5.89-56.09c-5.18-49.25-49.45-85.1-98.7-79.92Z"/>
  </g>
</svg>